<svg xmlns="http://www.w3.org/2000/svg" viewBox="0 0 1200 760" role="img" aria-labelledby="title desc">
  <title id="title">Versailles hall of mirrors atlas panel</title>
  <desc id="desc">A locally drawn hall interior inspired by Versailles, used as a fallback historical image.</desc>
  <defs>
    <linearGradient id="wall" x1="0" x2="1">
      <stop offset="0" stop-color="#caa65a"/>
      <stop offset=".52" stop-color="#f1d28b"/>
      <stop offset="1" stop-color="#9c7140"/>
    </linearGradient>
    <linearGradient id="floor" x1="0" x2="0" y1="0" y2="1">
      <stop offset="0" stop-color="#5e4432"/>
      <stop offset="1" stop-color="#1d1720"/>
    </linearGradient>
  </defs>
  <rect width="1200" height="760" fill="#17131a"/>
  <path d="M86 118H1114L990 588H210Z" fill="url(#wall)"/>
  <path d="M210 588H990L1180 760H20Z" fill="url(#floor)"/>
  <g stroke="#fff3c4" stroke-width="8" fill="none" opacity=".84">
    <path d="M190 160H1010"/>
    <path d="M236 246H964"/>
    <path d="M284 354H916"/>
    <path d="M356 118 256 588"/>
    <path d="M502 118 462 588"/>
    <path d="M698 118 738 588"/>
    <path d="M844 118 944 588"/>
  </g>
  <g fill="#f8e6a8" opacity=".95">
    <ellipse cx="600" cy="126" rx="132" ry="24"/>
    <path d="M520 126c24 74 52 112 80 112s56-38 80-112" fill="none" stroke="#f8e6a8" stroke-width="10"/>
    <circle cx="600" cy="246" r="18"/>
    <circle cx="542" cy="206" r="12"/>
    <circle cx="658" cy="206" r="12"/>
  </g>
  <g fill="#111722" opacity=".48">
    <rect x="254" y="188" width="112" height="250"/>
    <rect x="426" y="172" width="118" height="286"/>
    <rect x="656" y="172" width="118" height="286"/>
    <rect x="834" y="188" width="112" height="250"/>
  </g>
  <g fill="#fff7dd" font-family="Georgia, 'Times New Roman', serif">
    <text x="72" y="686" font-size="28" font-weight="700">VERSAILLES</text>
    <text x="72" y="724" font-size="20" opacity=".82">Absolutist space, ceremonial order, Atlantic administration.</text>
  </g>
</svg>
